<svg xmlns="http://www.w3.org/2000/svg" version="1.1" xmlns:xlink="http://www.w3.org/1999/xlink" width="1500" height="294" viewBox="0 0 1500 294"><svg xml:space="preserve" width="1500" height="294" data-version="2" data-id="lg_z2FRHK67EPhFaFoeRK" viewBox="0 0 562 294" x="0" y="0"><rect width="100%" height="100%" fill="transparent"></rect><path fill="#111" d="M17.713 254.155h43.36v4.15h-43.36Zm6.73 27.87q0 1.08.62 1.73.62.64 1.81.94l3.26.59q1.89.5 1.89 1.98 0 .79-.57 1.29-.57.49-1.86.49H7.713q-1.24 0-1.83-.49-.59-.5-.59-1.29 0-1.48 1.88-1.98l3.26-.59q1.19-.3 1.84-.94.64-.65.64-1.73v-55.25q0-1.09-.64-1.73-.65-.64-1.84-.94l-3.26-.59q-1.88-.5-1.88-1.98 0-.85.59-1.32.59-.47 1.83-.47h21.88q1.29 0 1.86.47.57.47.57 1.32 0 1.48-1.89 1.98l-3.26.59q-1.19.3-1.81.94-.62.64-.62 1.73Zm44.21 0q0 1.08.64 1.73.64.64 1.78.94l3.32.59q1.83.5 1.83 1.98 0 .79-.57 1.29-.57.49-1.81.49h-21.93q-1.23 0-1.8-.49-.57-.5-.57-1.29 0-1.48 1.83-1.98l3.32-.59q1.18-.3 1.8-.94.62-.65.62-1.73v-55.25q0-1.09-.62-1.73-.62-.64-1.8-.94l-3.32-.59q-1.83-.5-1.83-1.98 0-.85.57-1.32.57-.47 1.8-.47h21.93q1.24 0 1.81.47.57.47.57 1.32 0 1.48-1.83 1.98l-3.32.59q-1.14.3-1.78.94-.64.64-.64 1.73Z" paint-order="stroke"></path><rect width="70.93" height="69.3" x="-35.47" y="-34.65" fill="none" rx="0" ry="0" transform="translate(41.26 254.9)"></rect><path fill="#111" d="M121.963 283.305v-3.22l-.25-.29v-28.27q0-1.14-.37-1.63-.37-.5-1.26-.59l-3.37-.1q-.84-.15-1.19-.5-.34-.34-.34-.94 0-.64.42-1.06.42-.42 1.51-.77l8.21-2.92q1.54-.55 2.53-.79.99-.25 1.78-.25 1.24 0 1.86.67.61.67.61 1.85v37.77q0 1.34.5 2.01.49.67 1.48.91l2.23.5q.89.25 1.31.67.42.42.42 1.06 0 .74-.54 1.19-.54.44-1.68.44h-8.76q-2.28 0-3.69-1.51-1.41-1.51-1.41-4.23m-31.14-7.72v-24.06q0-1.14-.37-1.63-.37-.5-1.26-.59l-3.37-.1q-.84-.15-1.19-.5-.34-.34-.34-.94 0-.64.42-1.06.42-.42 1.51-.77l8.22-2.92q1.63-.59 2.59-.82.97-.22 1.61-.22 1.34 0 1.96.67.62.67.62 1.85v29.51q0 4.95 2.42 7.4 2.43 2.45 6.39 2.45 2.47 0 5.29-1.27 2.83-1.26 6.09-4.03l2.13-1.78 1.88 1.93-2.13 1.88q-5.89 5.3-10.29 7.45-4.41 2.15-8.42 2.15-6.18 0-9.97-3.93-3.79-3.94-3.79-10.67" paint-order="stroke"></path><rect width="53.75" height="48.21" x="-26.88" y="-24.11" fill="none" rx="0" ry="0" transform="translate(111.67 266.58)"></rect><path fill="#111" d="M162.703 244.495v37.77q0 1.34.49 2.01.5.67 1.49.91l2.22.5q.89.25 1.31.67.43.42.43 1.06 0 .74-.55 1.19-.54.44-1.73.44h-17.92q-1.14 0-1.66-.44-.52-.45-.52-1.19 0-.59.4-1.01.39-.42 1.28-.67l2.33-.55q.99-.29 1.49-.94.49-.64.49-1.98v-30.79q0-1.09-.37-1.58-.37-.5-1.21-.59l-3.37-.15q-.84-.15-1.21-.5-.37-.34-.37-.89 0-.64.42-1.06.42-.42 1.51-.82l8.26-2.92q1.59-.54 2.55-.79.97-.25 1.66-.25 1.29 0 1.93.69.65.7.65 1.88m-6.34-11.78q-3.17 0-5.17-1.75-2.01-1.76-2.01-4.53 0-2.82 2.01-4.56 2-1.73 5.17-1.73 3.27 0 5.27 1.76 2.01 1.75 2.01 4.53 0 2.77-2.01 4.53-2 1.75-5.27 1.75" paint-order="stroke"></path><rect width="22.92" height="68.9" x="-11.46" y="-34.45" fill="none" rx="0" ry="0" transform="translate(157.68 255.1)"></rect><path fill="#111" d="M236.703 219.745q1.73 0 2.77-.52t1.88-.99q.84-.47 1.78-.47 1.19 0 1.81.6.62.59 1.01 2.08l3.87 14.15q.29.99-.18 1.64-.47.64-1.41.79-.84.2-1.56-.15-.72-.35-1.21-1.38-2.23-5-4.11-7.53-1.88-2.52-4.01-3.36-2.13-.85-5.2-.85h-13.66v58.27q0 1.08.6 1.78.59.69 1.83.89l5.05.59q1.09.15 1.56.62t.47 1.36q0 .79-.57 1.29-.57.49-1.81.49h-23.86q-1.24 0-1.83-.49-.59-.5-.59-1.29 0-1.48 1.88-1.98l3.26-.59q1.19-.3 1.84-.94.64-.65.64-1.73v-55.25q0-1.09-.64-1.73-.65-.64-1.84-.94l-3.26-.59q-1.88-.5-1.88-1.98 0-.85.59-1.32.59-.47 1.83-.47Zm-23.27 34.36h17.23q3.12 0 4.33-1.22 1.21-1.21 1.76-4.67.2-.94.64-1.39.45-.44 1.19-.54 1.68-.2 2.13 1.68l3.61 14.26q.25 1.03-.05 1.63-.3.59-1.09.84-.79.2-1.48-.1-.7-.3-1.29-1.14-1.19-2.18-2.2-3.36-1.02-1.19-2.33-1.64-1.31-.44-3.34-.44h-19.11Z" paint-order="stroke"></path><rect width="50.69" height="71.28" x="-25.34" y="-35.64" fill="none" rx="0" ry="0" transform="translate(225.18 253.9)"></rect><path fill="#111" d="M272.443 244.495v37.77q0 1.34.49 2.01.5.67 1.49.91l2.22.5q.9.25 1.32.67.42.42.42 1.06 0 .74-.55 1.19-.54.44-1.73.44h-17.92q-1.14 0-1.66-.44-.52-.45-.52-1.19 0-.59.4-1.01.4-.42 1.29-.67l2.32-.55q.99-.29 1.49-.94.49-.64.49-1.98v-30.79q0-1.09-.37-1.58-.37-.5-1.21-.59l-3.37-.15q-.84-.15-1.21-.5-.37-.34-.37-.89 0-.64.42-1.06.42-.42 1.51-.82l8.27-2.92q1.58-.54 2.54-.79.97-.25 1.66-.25 1.29 0 1.93.69.65.7.65 1.88m-6.34-11.78q-3.17 0-5.17-1.75-2.01-1.76-2.01-4.53 0-2.82 2.01-4.56 2-1.73 5.17-1.73 3.27 0 5.27 1.76 2.01 1.75 2.01 4.53 0 2.77-2.01 4.53-2 1.75-5.27 1.75" paint-order="stroke"></path><rect width="22.92" height="68.9" x="-11.46" y="-34.45" fill="none" rx="0" ry="0" transform="translate(267.42 255.1)"></rect><path fill="#111" d="M302.193 244.495v37.77q0 1.34.49 1.98.5.65 1.44.94l2.22.5q1.54.54 1.54 1.68 0 1.68-2.28 1.68h-17.67q-1.14 0-1.66-.44-.52-.45-.52-1.19 0-.59.4-1.01.39-.42 1.24-.67l2.37-.55q.99-.29 1.49-.94.49-.64.49-1.98v-30.79q0-1.09-.37-1.58-.37-.5-1.21-.59l-3.37-.15q-.84-.15-1.21-.5-.37-.34-.37-.89 0-.64.42-1.06.42-.42 1.51-.82l8.27-2.92q1.53-.54 2.5-.79.96-.25 1.75-.25 1.24 0 1.88.69.65.7.65 1.88m-1.44 10.5-1.93-1.93 2.18-1.88q5.89-5.35 10.34-7.5 4.46-2.16 8.52-2.16 6.28 0 10.1 3.94 3.81 3.93 3.81 10.67v25.93q0 1.44.57 2.16.57.72 1.61 1.01l2.07.5q.85.25 1.27.67.42.42.42 1.01 0 .74-.55 1.19-.54.44-1.68.44h-17.72q-2.28 0-2.28-1.68 0-1.14 1.49-1.68l2.32-.5q1.09-.29 1.56-1.01t.47-2.11v-24.35q0-4.95-2.45-7.4t-6.46-2.45q-2.52 0-5.39 1.26-2.87 1.26-6.14 4.04Z" paint-order="stroke"></path><rect width="54.5" height="47.52" x="-27.25" y="-23.76" fill="none" rx="0" ry="0" transform="translate(312.96 265.79)"></rect><path fill="#111" d="M377.283 282.965v-.99l-.65-.3v-28.27q0-4.3-2.15-6.58-2.15-2.28-6.06-2.28-3.76 0-5.65 1.56-1.88 1.56-1.88 3.74v3.86q0 2.43-1.58 3.69-1.58 1.26-4.31 1.26-2.42 0-3.68-1.24-1.27-1.23-1.27-3.36 0-3.02 2.38-5.89 2.38-2.87 6.9-4.73 4.53-1.86 11.02-1.86 8.41 0 12.52 3.62 4.11 3.61 4.11 9.7v26.78q0 1.63.62 2.35.62.72 1.71.72 1.18 0 1.73-.55.54-.54.94-1.09.25-.34.49-.56.25-.23.65-.23.54 0 .79.37t.25 1.02q0 1.43-.99 2.92-.99 1.48-2.87 2.52-1.88 1.04-4.66 1.04-3.91 0-6.13-1.85-2.23-1.86-2.23-5.37m-29.45-4.21q0-5.84 5.22-9.6 5.22-3.77 14.53-3.77 3.36 0 6.18.62 2.83.62 4.95 1.61l-.79 2.67q-2.03-.84-4.18-1.41t-4.73-.57q-4.9 0-7.67 2.36-2.77 2.35-2.77 6.41 0 3.96 2.27 6.08 2.28 2.13 5.8 2.13 3.26 0 6.33-1.48 3.07-1.49 5.25-4.26l1.04 2.28q-2.92 4.01-7.53 6.18-4.6 2.18-9.75 2.18-6.28 0-10.22-3.09-3.93-3.09-3.93-8.34" paint-order="stroke"></path><rect width="46.33" height="48.61" x="-23.16" y="-24.3" fill="none" rx="0" ry="0" transform="translate(371.5 266.38)"></rect><path fill="#111" d="M417.273 244.495v37.77q0 1.34.5 1.98.49.65 1.43.94l2.23.5q1.54.54 1.54 1.68 0 1.68-2.28 1.68h-17.67q-1.14 0-1.66-.44-.52-.45-.52-1.19 0-.59.4-1.01.39-.42 1.23-.67l2.38-.55q.99-.29 1.48-.94.5-.64.5-1.98v-30.79q0-1.09-.37-1.58-.37-.5-1.21-.59l-3.37-.15q-.84-.15-1.21-.5-.37-.34-.37-.89 0-.64.42-1.06.42-.42 1.51-.82l8.26-2.92q1.54-.54 2.5-.79.97-.25 1.76-.25 1.24 0 1.88.69.64.7.64 1.88m-1.43 10.5-1.93-1.93 2.18-1.88q5.89-5.35 10.34-7.5 4.46-2.16 8.52-2.16 6.28 0 10.09 3.94 3.82 3.93 3.82 10.67v25.93q0 1.44.56 2.16.57.72 1.61 1.01l2.08.5q.84.25 1.26.67.43.42.43 1.01 0 .74-.55 1.19-.54.44-1.68.44h-17.72q-2.28 0-2.28-1.68 0-1.14 1.48-1.68l2.33-.5q1.09-.29 1.56-1.01t.47-2.11v-24.35q0-4.95-2.45-7.4t-6.46-2.45q-2.52 0-5.39 1.26-2.88 1.26-6.14 4.04Z" paint-order="stroke"></path><rect width="54.5" height="47.52" x="-27.25" y="-23.76" fill="none" rx="0" ry="0" transform="translate(428.05 265.79)"></rect><path fill="#111" d="M504.643 254.395q0 2.33-1.56 3.91-1.56 1.59-4.08 1.59-2.48 0-3.84-1.41-1.36-1.41-1.36-3.79v-1.48q0-3.52-2.42-5.65-2.43-2.13-6.69-2.13-3.81 0-6.75 2.13-2.95 2.13-4.63 6.07-1.68 3.93-1.68 9.28 0 6.43 2.2 10.91t6.04 6.78q3.83 2.31 8.78 2.31 4.71 0 8.15-2.18 3.44-2.18 4.92-5.74.64-.85 1.07-1.14.42-.3.91-.3.69 0 .99.57.3.57.25 1.31-.35 4.06-2.92 7.43-2.58 3.36-6.86 5.34t-9.77 1.98q-6.93 0-12.23-2.89-5.3-2.9-8.27-8.2-2.97-5.29-2.97-12.42 0-7.08 3.02-12.77 3.02-5.69 8.47-9.03 5.44-3.35 12.77-3.35 5.69 0 9.82 1.79 4.14 1.78 6.39 4.72 2.25 2.95 2.25 6.36" paint-order="stroke"></path><rect width="43.05" height="48.66" x="-21.52" y="-24.33" fill="none" rx="0" ry="0" transform="translate(483.94 266.36)"></rect><path fill="#111" d="M555.683 260.145q0 2.22-1.34 3.44-1.34 1.21-3.91 1.21h-31.63v-3.17h23.76q2.47 0 2.47-2.18 0-6.63-2.87-10.32-2.87-3.69-7.67-3.69-3.76 0-6.61 2.13-2.84 2.13-4.48 6.07-1.63 3.93-1.63 9.28 0 9.85 4.73 14.95 4.72 5.1 12.35 5.1 4.9 0 8.51-2.23 3.61-2.23 5.1-5.89.64-.79 1.06-1.12.42-.32.92-.32.64 0 .96.6.33.59.28 1.38-.3 4.06-2.95 7.43-2.65 3.36-7.05 5.37-4.41 2-10.05 2-6.93 0-12.25-2.92t-8.27-8.19q-2.94-5.27-2.94-12.4 0-7.23 2.87-12.89 2.87-5.67 8.19-8.96 5.32-3.3 12.65-3.3 6.08 0 10.52 2.38 4.43 2.38 6.85 6.56 2.43 4.18 2.43 9.68" paint-order="stroke"></path><rect width="43.53" height="48.66" x="-21.77" y="-24.33" fill="none" rx="0" ry="0" transform="translate(534.44 266.36)"></rect><path fill="#111" d="M396.074 176.112H163.362L279.718 2.816z"></path><path fill="#c4ad27" d="M329.372 140.825a2.19 2.19 0 0 0-2.487 1.816c-3.751 23.95-24.104 41.337-48.39 41.337-24.56 0-45.444-18.34-48.577-42.657a2.202 2.202 0 0 0-2.44-1.883 2.178 2.178 0 0 0-1.88 2.44c3.413 26.485 26.155 46.453 52.897 46.453 26.446 0 48.608-18.932 52.693-45.019a2.178 2.178 0 0 0-1.816-2.487m-101.892-10.31a2.178 2.178 0 0 0 2.438-1.88c3.151-24.302 24.033-42.625 48.577-42.625 24.255 0 45.106 18.081 48.5 42.054a2.178 2.178 0 1 0 4.308-.611c-3.698-26.109-26.4-45.797-52.808-45.797-26.725 0-49.464 19.955-52.893 46.42a2.178 2.178 0 0 0 1.878 2.44"></path><path fill="#c4ad27" d="M278.495 113.267c-11.981 0-21.726 9.748-21.726 21.727s9.747 21.726 21.726 21.726c11.983 0 21.726-9.748 21.726-21.726s-9.745-21.727-21.726-21.727m1.1 33.352v3.945h-2.39v-3.834c-2.197-.038-4.473-.718-5.804-1.671l.911-2.54c1.367.91 3.338 1.629 5.463 1.629 2.693 0 4.516-1.554 4.516-3.714 0-2.087-1.48-3.38-4.29-4.516-3.867-1.52-6.256-3.265-6.256-6.563 0-3.149 2.236-5.54 5.728-6.107v-3.836h2.35v3.68c2.277.078 3.832.687 4.935 1.33l-.952 2.504a9.167 9.167 0 0 0-4.778-1.289c-2.918 0-4.02 1.747-4.02 3.263 0 1.973 1.402 2.958 4.705 4.325 3.904 1.595 5.878 3.564 5.878 6.94-.002 3.005-2.09 5.81-5.996 6.454"></path><path fill="#c4ad27" d="M278.495 98.18c-20.3 0-36.814 16.514-36.814 36.814s16.514 36.814 36.814 36.814 36.812-16.515 36.812-36.814-16.515-36.814-36.812-36.814m0 62.896c-14.384 0-26.08-11.701-26.08-26.082 0-14.382 11.699-26.082 26.08-26.082 14.381 0 26.082 11.698 26.082 26.082s-11.701 26.082-26.082 26.082"></path></svg></svg>