<svg xmlns="http://www.w3.org/2000/svg" version="1.1" xmlns:xlink="http://www.w3.org/1999/xlink" width="1500" height="123" viewBox="0 0 1500 123"><svg xml:space="preserve" width="1500" height="123" data-version="2" data-id="lg_YqRtnoo6iDl5edm58v" viewBox="0 0 562 123" x="0" y="0"><rect width="100%" height="100%" fill="transparent"></rect><path fill="#3b3b3b" d="M125.415 27.058h8.97v24.51h31.31v-24.51h8.92v60.4h-8.92v-26.97h-31.31v26.97h-8.97Z" paint-order="stroke"></path><rect width="49.2" height="60.4" x="-24.6" y="-30.2" fill="none" rx="0" ry="0" transform="translate(150.51 57.76)"></rect><path fill="#3b3b3b" d="M181.825 43.448h8.97v28q0 2.97 2.04 5.05 2.04 2.09 4.88 2.09h15.59v-35.14h8.97v35.09q0 3.7-2.64 6.31-2.63 2.61-6.41 2.61h-15.51q-4.37 0-7.98-2.14-3.62-2.15-5.76-5.76-2.15-3.61-2.15-7.98Z" paint-order="stroke"></path><rect width="40.45" height="44.01" x="-20.23" y="-22" fill="none" rx="0" ry="0" transform="translate(202.55 65.95)"></rect><path fill="#3b3b3b" d="M227.615 31.478q0-2.3 1.62-3.91 1.61-1.62 3.91-1.62 2.29 0 3.9 1.62 1.62 1.61 1.62 3.91 0 2.29-1.62 3.9-1.61 1.62-3.9 1.62-2.3 0-3.91-1.62-1.62-1.61-1.62-3.9m1.02 11.97h9.01v44.01h-9.01Z" paint-order="stroke"></path><rect width="11.05" height="61.51" x="-5.53" y="-30.75" fill="none" rx="0" ry="0" transform="translate(233.64 57.2)"></rect><path fill="#3b3b3b" d="M266.525 27.058h40.44v8.92h-31.48v51.48h-8.96Zm14.06 24.51h26.38v8.92h-26.38Z" paint-order="stroke"></path><rect width="40.44" height="60.4" x="-20.22" y="-30.2" fill="none" rx="0" ry="0" transform="translate(287.25 57.76)"></rect><path fill="#3b3b3b" d="M312.315 31.478q0-2.3 1.61-3.91 1.61-1.62 3.91-1.62 2.29 0 3.91 1.62 1.61 1.61 1.61 3.91 0 2.29-1.61 3.9-1.62 1.62-3.91 1.62-2.3 0-3.91-1.62-1.61-1.61-1.61-3.9m1.01 11.97h9.01v44.01h-9.01Z" paint-order="stroke"></path><rect width="11.04" height="61.51" x="-5.52" y="-30.75" fill="none" rx="0" ry="0" transform="translate(318.33 57.2)"></rect><path fill="#3b3b3b" d="M328.705 52.378q0-3.7 2.65-6.31 2.66-2.62 6.4-2.62h15.5q4.38 0 7.99 2.15 3.61 2.15 5.75 5.76 2.15 3.61 2.15 7.98v28.12h-8.96v-27.99q0-2.97-2.02-5.06-2.02-2.08-4.91-2.08h-15.59v35.13h-8.96Z" paint-order="stroke"></path><rect width="40.44" height="44.01" x="-20.22" y="-22" fill="none" rx="0" ry="0" transform="translate(349.43 65.95)"></rect><path fill="#3b3b3b" d="M375.085 59.258q0-4.38 2.15-7.95 2.14-3.56 5.75-5.71t7.99-2.15h24.55v44.01h-8.96v-35.04h-15.59q-2.85 0-4.89 2.02-2.03 2.01-2.03 4.9v12.15q0 2.89 2.03 4.95 2.04 2.06 4.89 2.06h10.49v8.96h-10.49q-4.38 0-7.99-2.14-3.61-2.15-5.75-5.76-2.15-3.61-2.15-7.98Z" paint-order="stroke"></path><rect width="40.44" height="44.01" x="-20.22" y="-22" fill="none" rx="0" ry="0" transform="translate(395.8 65.95)"></rect><path fill="#3b3b3b" d="M421.895 52.378q0-3.7 2.66-6.31 2.65-2.62 6.39-2.62h15.5q4.38 0 7.99 2.15 3.61 2.15 5.76 5.76 2.14 3.61 2.14 7.98v28.12h-8.96v-27.99q0-2.97-2.02-5.06-2.02-2.08-4.91-2.08h-15.59v35.13h-8.96Z" paint-order="stroke"></path><rect width="40.44" height="44.01" x="-20.22" y="-22" fill="none" rx="0" ry="0" transform="translate(442.62 65.95)"></rect><path fill="#3b3b3b" d="M468.275 59.338q0-4.37 2.21-7.98 2.21-3.61 5.91-5.76 3.69-2.15 8.2-2.15h24.76v8.97h-24.76q-3.02 0-5.19 2.06-2.16 2.06-2.16 4.99v11.94q0 2.93 2.14 5.01 2.15 2.08 5.21 2.08h24.76v8.96h-24.76q-4.51 0-8.2-2.16-3.7-2.17-5.91-5.8t-2.21-8.01Z" paint-order="stroke"></path><rect width="41.08" height="44.01" x="-20.54" y="-22" fill="none" rx="0" ry="0" transform="translate(489.31 65.95)"></rect><path fill="#3b3b3b" d="M515.305 52.548q0-3.79 2.76-6.44 2.76-2.66 6.62-2.66h18.36q3.52 0 6.39 1.73 2.87 1.72 4.59 4.63 1.72 2.91 1.72 6.43v1.23q0 3.49-1.72 6.35-1.72 2.87-4.59 4.59-2.87 1.72-6.39 1.72h-13.68v-8.92h13.76q1.53 0 2.61-1.1 1.09-1.11 1.09-2.68v-1.19q0-1.61-1.09-2.72-1.08-1.1-2.61-1.1h-18.86v22.6q0 1.44.98 2.46.97 1.02 2.37 1.02h25.03v8.96h-25.03q-3.39 0-6.2-1.67-2.8-1.68-4.46-4.51-1.65-2.82-1.65-6.22Z" paint-order="stroke"></path><rect width="40.44" height="44.01" x="-20.22" y="-22" fill="none" rx="0" ry="0" transform="translate(536.02 65.95)"></rect><path fill="#ff851b" d="M49.78 55.88a21.963 21.963 0 0 1 21.963 21.963l.277 44.28h22.04v-44.28c0-24.455-19.825-44.28-44.28-44.28S5.5 53.388 5.5 77.843v44.28h22.34l-.023-44.28c0-12.13 9.834-21.963 21.963-21.963"></path><path fill="#3d9970" d="M49.534 67.119a21.963 21.963 0 0 1-21.963-21.963L27.294.876H5.254v44.28c0 24.455 19.825 44.28 44.28 44.28s44.28-19.825 44.28-44.28V.876h-22.34l.023 44.28c0 12.13-9.834 21.963-21.963 21.963"></path></svg></svg>